# xmcd
#
# Track frame offsets:
#	150
#	21266
#	39022
#	61002
#	86974
#	108882
#	132724
#	157355
#	178810
#	198673
#
# Disc length: 2905 seconds
#
# Revision: 0
# Processed by: cddbd v1.5.2PL0 Copyright (c) Steve Scherf et al.
# Submitted via: EZCDAudioConverter 2.4.0.1
#
DISCID=8c0b570a
DTITLE=Tam Doan - Thanh Ca - Tinh Chua Cao Voi
DYEAR=2012
DGENRE=Vietnamese
TTITLE0=Tinh Chua Cao Voi
TTITLE1=Xin Vang
TTITLE2=Con Chi La Tao Vat
TTITLE3=Lang Nghe Tieng Chua
TTITLE4=Bo Ngai Con Biet Theo Ai
TTITLE5=Trong Trai Tim Chua
TTITLE6=Loi Me Nhan Nhu
TTITLE7=Dang Me
TTITLE8=Lam Sao Dam Mo
TTITLE9=Len Den Thanh
EXTD=
EXTT0=
EXTT1=
EXTT2=
EXTT3=
EXTT4=
EXTT5=
EXTT6=
EXTT7=
EXTT8=
EXTT9=
PLAYORDER=
